<svg xmlns="http://www.w3.org/2000/svg" width="880" height="150" viewBox="0 0 880 150" font-family="ui-monospace, SFMono-Regular, Menlo, Consolas, 'DejaVu Sans Mono', monospace" font-size="13.0" role="img">
<title>with kern.Sandbox() as sb:   sb.write_file(&quot;in.csv&quot;, data)   sb.run_code(job)   sb.read_file(&quot;out.txt&quot;) with kern.Sandbox() as sb:   with sb.kernel() as k:     k.run_code(&quot;x = 40&quot;)     k.run_code(&quot;print(x + 2)&quot;) sb = kern.Sandbox(   setup=&quot;pip install numpy&quot;) with sb:   sb.run_code(&quot;import numpy&quot;)</title>
<g transform="translate(0 0)">
<rect x="0.5" y="0.5" width="281" height="149" rx="10" fill="#080c13" stroke="#1f2933"/>
<path d="M0.5 34V10.5a10 10 0 0 1 10-10H271.5a10 10 0 0 1 10 10V34Z" fill="#141a21"/>
<line x1="0.5" y1="34" x2="281.5" y2="34" stroke="#1f2933"/>
<circle cx="20" cy="17.0" r="5.6" fill="#c58038"/>
<circle cx="38" cy="17.0" r="5.6" fill="#e2b241"/>
<circle cx="56" cy="17.0" r="5.6" fill="#3ab593"/>
<path transform="translate(80 9.5) scale(0.94)" d="M5.5 4.5 2 8l3.5 3.5M10.5 4.5 14 8l-3.5 3.5" fill="none" stroke="#e2b241" stroke-width="1.6" stroke-linecap="round" stroke-linejoin="round"/>
<text x="101" y="21.5" fill="#c9d1d9" font-size="13.5" font-weight="600">files.py</text>
<text x="20" y="65" xml:space="preserve"><tspan fill="#569cd6">with</tspan><tspan fill="#d4d4d4"> </tspan><tspan fill="#d4d4d4">kern</tspan><tspan fill="#d4d4d4">.</tspan><tspan fill="#d4d4d4">Sandbox</tspan><tspan fill="#d4d4d4">(</tspan><tspan fill="#d4d4d4">)</tspan><tspan fill="#d4d4d4"> </tspan><tspan fill="#569cd6">as</tspan><tspan fill="#d4d4d4"> </tspan><tspan fill="#d4d4d4">sb</tspan><tspan fill="#d4d4d4">:</tspan></text>
<text x="20" y="86" xml:space="preserve"><tspan fill="#d4d4d4">  </tspan><tspan fill="#d4d4d4">sb</tspan><tspan fill="#d4d4d4">.</tspan><tspan fill="#d4d4d4">write_file</tspan><tspan fill="#d4d4d4">(</tspan><tspan fill="#ce9178">&quot;</tspan><tspan fill="#ce9178">in.csv</tspan><tspan fill="#ce9178">&quot;</tspan><tspan fill="#d4d4d4">,</tspan><tspan fill="#d4d4d4"> </tspan><tspan fill="#d4d4d4">data</tspan><tspan fill="#d4d4d4">)</tspan></text>
<text x="20" y="107" xml:space="preserve"><tspan fill="#d4d4d4">  </tspan><tspan fill="#d4d4d4">sb</tspan><tspan fill="#d4d4d4">.</tspan><tspan fill="#d4d4d4">run_code</tspan><tspan fill="#d4d4d4">(</tspan><tspan fill="#d4d4d4">job</tspan><tspan fill="#d4d4d4">)</tspan></text>
<text x="20" y="128" xml:space="preserve"><tspan fill="#d4d4d4">  </tspan><tspan fill="#d4d4d4">sb</tspan><tspan fill="#d4d4d4">.</tspan><tspan fill="#d4d4d4">read_file</tspan><tspan fill="#d4d4d4">(</tspan><tspan fill="#ce9178">&quot;</tspan><tspan fill="#ce9178">out.txt</tspan><tspan fill="#ce9178">&quot;</tspan><tspan fill="#d4d4d4">)</tspan></text>
</g>
<g transform="translate(298 0)">
<rect x="0.5" y="0.5" width="281" height="149" rx="10" fill="#080c13" stroke="#1f2933"/>
<path d="M0.5 34V10.5a10 10 0 0 1 10-10H271.5a10 10 0 0 1 10 10V34Z" fill="#141a21"/>
<line x1="0.5" y1="34" x2="281.5" y2="34" stroke="#1f2933"/>
<circle cx="20" cy="17.0" r="5.6" fill="#c58038"/>
<circle cx="38" cy="17.0" r="5.6" fill="#e2b241"/>
<circle cx="56" cy="17.0" r="5.6" fill="#3ab593"/>
<path transform="translate(80 9.5) scale(0.94)" d="M5.5 4.5 2 8l3.5 3.5M10.5 4.5 14 8l-3.5 3.5" fill="none" stroke="#e2b241" stroke-width="1.6" stroke-linecap="round" stroke-linejoin="round"/>
<text x="101" y="21.5" fill="#c9d1d9" font-size="13.5" font-weight="600">state.py</text>
<text x="20" y="65" xml:space="preserve"><tspan fill="#569cd6">with</tspan><tspan fill="#d4d4d4"> </tspan><tspan fill="#d4d4d4">kern</tspan><tspan fill="#d4d4d4">.</tspan><tspan fill="#d4d4d4">Sandbox</tspan><tspan fill="#d4d4d4">(</tspan><tspan fill="#d4d4d4">)</tspan><tspan fill="#d4d4d4"> </tspan><tspan fill="#569cd6">as</tspan><tspan fill="#d4d4d4"> </tspan><tspan fill="#d4d4d4">sb</tspan><tspan fill="#d4d4d4">:</tspan></text>
<text x="20" y="86" xml:space="preserve"><tspan fill="#d4d4d4">  </tspan><tspan fill="#569cd6">with</tspan><tspan fill="#d4d4d4"> </tspan><tspan fill="#d4d4d4">sb</tspan><tspan fill="#d4d4d4">.</tspan><tspan fill="#d4d4d4">kernel</tspan><tspan fill="#d4d4d4">(</tspan><tspan fill="#d4d4d4">)</tspan><tspan fill="#d4d4d4"> </tspan><tspan fill="#569cd6">as</tspan><tspan fill="#d4d4d4"> </tspan><tspan fill="#d4d4d4">k</tspan><tspan fill="#d4d4d4">:</tspan></text>
<text x="20" y="107" xml:space="preserve"><tspan fill="#d4d4d4">    </tspan><tspan fill="#d4d4d4">k</tspan><tspan fill="#d4d4d4">.</tspan><tspan fill="#d4d4d4">run_code</tspan><tspan fill="#d4d4d4">(</tspan><tspan fill="#ce9178">&quot;</tspan><tspan fill="#ce9178">x = 40</tspan><tspan fill="#ce9178">&quot;</tspan><tspan fill="#d4d4d4">)</tspan></text>
<text x="20" y="128" xml:space="preserve"><tspan fill="#d4d4d4">    </tspan><tspan fill="#d4d4d4">k</tspan><tspan fill="#d4d4d4">.</tspan><tspan fill="#d4d4d4">run_code</tspan><tspan fill="#d4d4d4">(</tspan><tspan fill="#ce9178">&quot;</tspan><tspan fill="#ce9178">print(x + 2)</tspan><tspan fill="#ce9178">&quot;</tspan><tspan fill="#d4d4d4">)</tspan></text>
</g>
<g transform="translate(596 0)">
<rect x="0.5" y="0.5" width="281" height="149" rx="10" fill="#080c13" stroke="#1f2933"/>
<path d="M0.5 34V10.5a10 10 0 0 1 10-10H271.5a10 10 0 0 1 10 10V34Z" fill="#141a21"/>
<line x1="0.5" y1="34" x2="281.5" y2="34" stroke="#1f2933"/>
<circle cx="20" cy="17.0" r="5.6" fill="#c58038"/>
<circle cx="38" cy="17.0" r="5.6" fill="#e2b241"/>
<circle cx="56" cy="17.0" r="5.6" fill="#3ab593"/>
<path transform="translate(80 9.5) scale(0.94)" d="M5.5 4.5 2 8l3.5 3.5M10.5 4.5 14 8l-3.5 3.5" fill="none" stroke="#e2b241" stroke-width="1.6" stroke-linecap="round" stroke-linejoin="round"/>
<text x="101" y="21.5" fill="#c9d1d9" font-size="13.5" font-weight="600">package.py</text>
<text x="20" y="65" xml:space="preserve"><tspan fill="#d4d4d4">sb</tspan><tspan fill="#d4d4d4"> </tspan><tspan fill="#d4d4d4">=</tspan><tspan fill="#d4d4d4"> </tspan><tspan fill="#d4d4d4">kern</tspan><tspan fill="#d4d4d4">.</tspan><tspan fill="#d4d4d4">Sandbox</tspan><tspan fill="#d4d4d4">(</tspan></text>
<text x="20" y="86" xml:space="preserve"><tspan fill="#d4d4d4">  </tspan><tspan fill="#d4d4d4">setup</tspan><tspan fill="#d4d4d4">=</tspan><tspan fill="#ce9178">&quot;</tspan><tspan fill="#ce9178">pip install numpy</tspan><tspan fill="#ce9178">&quot;</tspan><tspan fill="#d4d4d4">)</tspan></text>
<text x="20" y="107" xml:space="preserve"><tspan fill="#569cd6">with</tspan><tspan fill="#d4d4d4"> </tspan><tspan fill="#d4d4d4">sb</tspan><tspan fill="#d4d4d4">:</tspan></text>
<text x="20" y="128" xml:space="preserve"><tspan fill="#d4d4d4">  </tspan><tspan fill="#d4d4d4">sb</tspan><tspan fill="#d4d4d4">.</tspan><tspan fill="#d4d4d4">run_code</tspan><tspan fill="#d4d4d4">(</tspan><tspan fill="#ce9178">&quot;</tspan><tspan fill="#ce9178">import numpy</tspan><tspan fill="#ce9178">&quot;</tspan><tspan fill="#d4d4d4">)</tspan></text>
</g>
</svg>
